<svg xmlns="http://www.w3.org/2000/svg" width="48" height="48"><g id="surface70500612"><path style="stroke:none;fill-rule:evenodd;fill:#0b4b33;fill-opacity:1" d="M8 16v12.645c-1.344.253-2.05.355-3.121.355C1.672 28.996 0 27.566 0 24.816c0-2.648 1.77-4.367 4.516-4.367.425 0 .75.031 1.144.133V16Zm-2.34 6.672a2.627 2.627 0 0 0-.887-.133c-1.328 0-2.097.809-2.097 2.227 0 1.382.734 2.144 2.082 2.144.289 0 .523-.015.902-.066Zm0 0"/><path style="stroke:none;fill-rule:evenodd;fill:#0b4b33;fill-opacity:1" d="M12 20.047v6.617c0 2.074-.156 3.223-.613 4.082-.426.828-.985 1.352-2.145 1.926l-2.437-1.149c1.16-.539 1.722-1.015 2.078-1.742.375-.742.496-1.754.496-4.015v-5.723H12ZM9.379 16H12v2.715H9.379ZM13.734 20.875c1.137-.55 2.223-.793 3.407-.793 1.324 0 2.191.363 2.574 1.07.215.399.285.914.285 2.024v5.406c-1.152.172-2.605.293-3.672.293-2.156 0-3.125-.777-3.125-2.504 0-1.867 1.285-2.73 4.442-3.008v-.582c0-.484-.235-.66-.883-.66-.95 0-2.02.277-3.024.813Zm4.028 4.23c-1.703.172-2.254.45-2.254 1.141 0 .52.316.762 1.02.762.382 0 .734-.031 1.234-.117ZM21.418 20.691c1.52-.418 2.773-.613 4.043-.613 1.316 0 2.27.32 2.836.934.531.578.703 1.21.703 2.562v5.301h-2.574V23.68c0-1.035-.336-1.422-1.25-1.422-.352 0-.672.035-1.188.195v6.426h-2.57ZM30.176 30.008c.922.484 1.84.707 2.812.707 1.723 0 2.453-.473 2.453-2.176v-.05c-.507.257-1.023.366-1.703.366-2.3 0-3.738-1.546-3.738-4 0-3.043 2.14-4.761 5.973-4.761 1.129 0 2.168.12 3.43.383l-.9 1.93c-.698-.137-.058-.02-.585-.071v.277l.035 1.133.016 1.461c.015.363.015.73.035 1.094v.73c0 2.297-.191 3.133-.75 4.02C36.434 32.355 35.02 33 33.008 33c-1.028 0-1.91-.156-2.832-.523Zm5.215-7.758h-.274c-.512-.016-1.11.121-1.52.383-.624.367-.952 1.027-.952 1.965 0 1.336.652 2.101 1.808 2.101.36 0 .649-.066.988-.172v-.922c0-.316-.015-.664-.015-1.027l-.02-1.234-.015-.887ZM43.566 20.047c2.754 0 4.434 1.66 4.434 4.348 0 2.753-1.754 4.484-4.543 4.484-2.758 0-4.457-1.66-4.457-4.332.004-2.774 1.758-4.5 4.566-4.5Zm-.058 6.707c1.058 0 1.683-.84 1.683-2.297 0-1.437-.609-2.293-1.664-2.293-1.093 0-1.718.84-1.718 2.293 0 1.457.629 2.297 1.699 2.297Zm0 0"/></g></svg>