<svg width="240" height="215" xmlns:xlink="http://www.w3.org/1999/xlink" xmlns="http://www.w3.org/2000/svg"><defs><clipPath id="mask_1"><use xlink:href="#path_1"/></clipPath><path d="M0 0h240v215H0V0Z" id="path_1"/></defs><g id="icons8-flask-(4)"><path d="M0 0h240v215H0V0Z" id="Background" fill="none" fill-rule="evenodd" stroke="none"/><g clip-path="url('#mask_1')"><path d="M29.85.356c-4.75.399-8.898 4.218-2.972 10.613 11.383 6.43-11.226 11.16-4.625 15.462 2.105 4.53-.169 9.578-6.323 10.39-9.015.778-8.16 13.088.625 6.636 9.804-3.112 1.695 1.23-2.927 2.123C3.252 48.6-3.818 58.965 2.211 68.437c5.765 13.042 7.302 27.59 11.775 41.158 7.401 20.866 18.216 40.721 32.264 57.87 6.67 9.724 16.42 16.633 25.584 23.841 9.014 5.845 19.053 11.694 29.315 14.679 18.224 6.67 37.781 7.294 56.932 8.804 11.668-.023 23.38-.846 34.901-2.905 10.364 1.121 17.823-7.74 27.192-3.061 5.674-5.033 13.943-2.841 19.618-6.502 4.198-14.277-14.419-2.83-20.311-9.809-6.406 7.528-11.783-.826-19.551 1.52-13.224.663 1.003-5.925.671-11.977-7.013-5.376-14.932 7.383-19.417 10.815-11.074-2.002-22.039-5.15-32.197-9.943-11.578-6.029-22.941-13.202-31.326-23.372-8.775-10.387-18.474-20.891-22.478-34.23-8.466-22.022-7.915-45.866-10.077-68.998.8-15.661 17.339 1.686 24.489-3.977-2.448-8.123-15.494-10.694-22.702-13.943-6.955-.48-9.49-6.713-16.892-7.217.355-8.694-13.6-3.91-18.679-10.099 5-12.904-16.563.306-14.88-10.86C39.952 2.974 34.6-.042 29.85.357Zm1.214 1.141c1.488-.396 3.199-.077 4.923 1.387 8.18 11.78-15.046-1.35-6.987 9.897-4.901-2.457-2.399-10.093 2.064-11.284Zm17.19 16.697c3.524 1.936 4.74 7.387-4.936 10.73l-3.889-.517c-.51-10.558 5.302-12.15 8.826-10.213Zm-6.612 5.51c3.269 1.681 9.972 2.46 11.07 6.676-6.695-4.09 1.331 4.93-4.289 4.762-3.03.042-8.643-7.6-6.782-11.438Zm-1.627 5.305c7.264 17.587-4.048-.01-8.647 11.024-7.242 2.33 7.938-12.99 8.647-11.024Zm19.196 3.193c.927.275.926 1.217-.604 3.191 5.629 7.223 1.263 4.787-2.57-.336 3.364 2.494.77 13.262-4.401 5.855-3.66-7.322-5.979-2.373-2.1 2.639-3.81-7.702-14.837-4.412-22.903-1.464-5.205-.614 13.527-4.775 15.552-5.758 3.131.065 14.244-4.951 17.026-4.127Zm22.567 7.59c2.3-.03 4.57.056 6.815.245 3.603 4.199-2.728 11.306-9.318 11.775-8.008 2.998-16.159 3.731-23.595 4.715-9.54-1.201-16.392 7.381-26.276 8.468 2.631-4.873-2.162-1.681-7.172-1.921 2.55 9.838-17.652-2.615-5.72-4.983-8.946-3.18-9.072 6.22-8.133 11.574h-.604c-8.19-10.548.92-14.85 11.284-16.2-1.968 4.863 2.83 6.426 7.44 7.307 7.47-2.059-4.914-3.384.738-5.34 3.1-.572-9.884-3.105.938-4.558 11.097-1.865 21.08-6.225 32.086-8.513 7.447-1.476 14.615-2.48 21.517-2.57Zm3.462 2.624c-2.29-.836-7.616.847-10.344 9.27 1.98 5.312 2.961-1.553 2.56-3.377 9.349-1.68 10.075-5.056 7.784-5.893Zm-29 4.045c-3.203-.566-8.448 2.098-10.301 10.652 2.356 4.135 4.948-11.44 8.334-1.632 6.32-4.618 5.168-8.454 1.966-9.02Zm46.204.562c3.239-.629 13.271 3.819 9.724 11.277-2.431.825-2.016-3.527-3.799-4.242-7.347-4.444-7.869-6.659-5.925-7.035Zm-60.588 4.253c-1.877-.003-3.38 1.473-3.559 5.483l3.609 5.744c14.415 2.038 5.58-11.216-.05-11.227Zm-4.08 2.98c-1.805-.37-3.478 1.037-4.395 5.806 1.696-.585 4.39.792 6.017 2.522 10.253 9.866 3.791-7.214-1.623-8.327Zm42.101 1.066c5.95-1.165 4.214 14.235 2.302 18.97 3.603-2.46 2.91 11.43 1.743 16.6 1.967-2.642 2.777 4.277.58 9.162.184-.801 4.76-1.499 1.386 4.29-2.574-5.674-3.692 11.542-2.033 3.821 4.541-7.299 3.352-.389 4.736 2.837.893 6.693 3.878 12.865 4.782 18.791 4.198 4.233-1.788 1.363-1.765 7.083 1.361-1.659 6.916 2.33 6.882 8.267.457-9.415.998-2.202 5.586.246 3.832 6.178 6.703 11.958 12.423 17.048 4.461 5.16-.28 1.535 1.653 4.693 4.736 8.397 15.709 13.265 25.204 15.462 4.164 5.422 10.415 10.816 18.88 8.356-7.161 4.416 20.17 5.617 10.927 8.111-4.805 2.608-9.364-1.681-14.055-1.452-6.52-2.243-16.828-9.114-23.818-4.447-9.667 6.052 4.954-6.748-2.882-1.028-7.94 9.53-5.394-5.929-13.139-1.296-.446-1.475-6.884-1.882-2.01-4.491-4.371-.274-1.646-.555-.068-4.044-1.876-.389-12.304-.02-16.4-3.441-4.828-6.28.843-3.73 5.877-2.815-8.077 1.418 2.778 6.059 8.177 3.485-2.425-1.029-5.201-6.271-11.618-10.859-8.97-5.399-16.35-7.976-25.651-12.289-10.067-5.971 2.253-2.118 5.742 1.028 10.045 4.427 6.091-6.214.269-8.982-6.384.263-8.025-7.07-13.139-6.658 8.077 1.292 13.684-2.089 4.693-10.212-8.546-9.975 3.568 7.527-1.408 5.274-2.265-2.986-.568-7.282-7.798-8.826-.08 2.757-.99 7.029-2.57 1.229-2.013.343-4.318 2.553-5.965-3.419 1.556-6.784-6.718-8.333-8-12.669 7.15 4.565 10.386.966 5.318-4.022-3.489-6.097-3.976-1.315-5.92-.469-7.014 7.162-.643-12.354-3.755-6.725-3.134-.092-1.33 3.449-1.273 7.842-10.25-2.539 2.489 5.394 5.452 9.764-4.68-4.896-3.886 3.671-7.798-.402-1.327-3.603-1.512-9.293-8.022-10.3 7.402-2.563-4.402-7.769-3.418-8.044 4.233-3.855 4.773-9.154 9.876-.871-6.464-.527-.183 10.669 1.407 7.328-.251-5.731 2.642-11.746-7.127-14.389-2.872 3.867-7.821-7.575-2.078-5.161-.755-7.596 8.907-3.118 8.29-6.413 4.987-2.185-6.039-9.24-.09-12.066 4.553 2.769 16.363-4.356 8.424-5.34 4.965-.046 8.947 2.13 9.473-2.904 4.016.869 14.878 4.328 5.005-1.118 3.158-1.567 9.83-2.892 13.675-2.95 1.185-.921 2.189-1.42 3.038-1.585Zm2.023 9.451c-2.949.432-7.56 8.427-4.38 11.284 6.997 5.686 13.998-13.974 8.235-7.373-3.095 8.408-6.26 4.894-1.796-1.363-.27-2.01-1.076-2.691-2.06-2.547Zm-52.715 7.45c.733-.06 2.02.045 4.005.413C43.427 72 40.14 82.83 34.313 83.545c-.132.688-5.337-2.24-3.169-4.808 14.044 3.196-7.091-6.101-1.96-6.515Zm20.04 2.906c1.021 1.708 2.752 4.922 1.447 6.35 3.439 2.54 15.187 7.061 5.752.848 6.014-.895-.794-2.315-4.374-4.447-4.153-4.653-3.845-4.459-2.824-2.75Zm-22.573.066c4.951-.267 10.034 3.262.43 11.426-10.203-7.094-5.382-11.158-.43-11.426Zm48.882 5.464c-1.712-.897-2.61-.102-.662 4.262 19.948 16.463 5.8-1.573.662-4.262Zm-28.702 2.877c1.184 4.348 4.389 2.423 5.881 6.64 13.485 14.189-1.21-9.19-5.88-6.64Zm-1.852.824c-.633.223-.519 1.524.887 4.528.884 3.097 3.016 3.36 4.795 4.082 13.804 9.85-2.94-9.575-5.682-8.61Zm-19.472 1.345c4.622 1.466 10.181 6.308 4.068 10.988l-2.483-1.849c-9.886-8.753-6.206-10.604-1.585-9.139Zm15.585 1.211c-.841.062-.12 1.851 3.788 6.776l2.536 3.683c12.82 4.977-3.8-10.645-6.324-10.459Zm-.48 2.39c-.628-.02 5.008 5.864 2.403 5.761-9.018-6.432-5.337-1.883-.244 3.06 5.53 8.014 10.098-4.774 1.096-6.386-2.142-1.757-3.046-2.43-3.256-2.436Zm28.29 6.514c-1.458.912-1.712 3.994 1.16 10.7 19.155 3.316 3.21-13.436-1.16-10.7Zm6.112.3c-2.766.009-4.844 10.125 1.992 12.244 2.816 4.176 5.823 2.457 6.843-2.279-6.608.069 2.72-7.419-6.15-5.943-.776-2.914-1.763-4.025-2.685-4.022Zm17.884.337c-2.428-1.058-8.268 1.254-10.384 8.992v2.206c11.718-5.723 12.811-10.14 10.384-11.198Zm-75.958.222c1.86-.218 12.466 10.219 11.035 13.094-6.498-1.099-6.183-6.039-9.196-8.647-2.09-3.115-2.46-4.374-1.84-4.447Zm37.519.513c-.883 2.323 1.873 9.938 3.541 12.535 4.256 6.189 2.347-3.384 7.013 2.793-2.563-5.422 1.205-2.47.661-4.781-1.185-2.334-12.66-14.686-7.438-5.363 4.727 11.12-2.967-1.397-3.777-5.184Zm-39.782 1.813c1.21.78 4.45 6.051 5.05 8.982 5.09 6.132 3.083 9.51 8.356 17.026-6.783-4.279-8.065-14.492-12.378-21.093-1.763-4.234-1.753-5.383-1.028-4.915Zm37.447 19.214c2.73.857 1.08 9.782 5.184 10.993 9.164 11.955-6.347.351-11.53-.804.664-.034-4.6-1.496-2.323-2.011-1.659-1.705-5.371-7.895 3.106-3.754 6.738 3.375 7.303 1.098 4.089-4.267.597-.254 1.084-.279 1.474-.157Zm-30.923 1.744c.227-1.141 4.893 6.365 5.742 9.496 2.563 8.157 10.583 12.856 11.395 18.255 8.89 5.125 4.328 13.485 11.798 15.842 3.318-1.682 3.644 10.067 10.703 7.619-3.924 1.842 1.652 4.02 3.62 7.441 4.45-.607 14.203 9.803 4.49 6.211-4.095-.869-6.892-5.13-9.786-7.909-8.592-5.457-14.167-14.587-18.88-23.327-6.075-9.187-13.388-18.372-17.54-29.114-1.219-2.789-1.618-4.133-1.542-4.514Zm69.417 6.937c-2.325.453-2.446 3.099 4.358 8.886l4.014 2.483c5.541-6.844-4.498-12.122-8.372-11.369ZM58.56 137.367c2.528.551 6.332 1.909 7.865 2.212.423 1.819-8.666 1.537-.715 5.094-4.633-.125-6.031-.474.58 3.575-2.596 2.083 5.237 3.737 2.548 6.86 7.974 6.223-1.44 1.579-4.849-.961-2.013-1.396-10.218-4.169-8.937-5.988 9.678 5.079 2.457-.223-1.81-3.597 7.802 1.91-6.252-5.779 1.184-3.754 2.208.538-3.343-4.556 3.933-.849-3.58-2.894-2.327-3.143.2-2.592Zm49.039 19.517c-2.302-.521-.024 5.192 5.107 8.635 10.936 8.351 2.617-4.741-1.186-5.724-1.849-1.867-3.154-2.738-3.921-2.911Zm-42.29 5.531c2.636.051 6.948 2.178 9.607 4.716 11.67 4.645-2.482 10.241-7.15 3.836l-1.966-.759c-4.078-5.791-3.128-7.844-.492-7.793Zm13.94 1.247c.971-.423 5.382 3.283 7.263 6.847 5.594 1.542 5.618 6.763-.56 3.515-1.097-1.379-2.868-1.302-3.44-4.2-3.183-4.154-3.845-5.908-3.262-6.162Zm7.441.074c1.765-.096 4.654 1.514 5.564 5.814 12.252 6.321-.775 9.071-4.402-1.292-3.563-2.628-2.926-4.425-1.162-4.522Zm.143 6.959c2.466-1.282 18.567 14.347 6.988 10.854l-3.37-2.542c-3.742-5.52-4.44-7.885-3.618-8.312Zm45.86 2.577c2.04 1.239 4.112 4.468 5.547 10.815-16.993-.47-11.664-14.532-5.547-10.815Zm-45.675 2.812c3.754.742 18.197 16.869 5.406 9.482l-1.969-1.569-2.236-2.115c-2.533-4.601-2.453-6.045-1.201-5.798Zm20.626 14.346c2.236-3.337 20.599 12.276 4.989 10.883-4.696-6.707-5.735-9.771-4.989-10.883Zm-25.466.965c.686.154 1.775.489 3.373 1.073 10.24 6.326 22.043 9.672 32.98 14.545 9.609 1.259 19.742 3.802 29.203 1.766 7.894 3.946 16.081-1.022 23.997 2.547-17.491 3.409-35.487-.323-52.91-2.748-10.982-1.385-20.79-5.943-30.812-10.279-1.453-.686-2.827-1.545-4.223-2.346-6.887-3.821-6.033-4.601.67-.849 2.369 1.888 19.169 8.765 11.172 4.223-3.023-.751-18.258-9.006-13.45-7.932Zm67.234 3.16c1.201.882 1.242 3.762 1.198 7.401-8.065 10.184-3.256-4.163-8.253 1.37-4.611 4.21-3.517-2.507-1.027-4.111 4.515-4.421 6.881-5.542 8.082-4.66Zm40.308 2.059c4.697 1.281 10.071 4.714 13.183 4.949-1.888 12.561-13.555 1.019-18.68 4.313l-2.212-.425-1.363-.706c.361-8.543 4.374-9.411 9.072-8.131Zm40.397.947c12.149-.075.801 11.588-4.782 11.438-6.337-9.761 2.871-9.486 4.782-11.438Zm-66.745 1.621c3.508-.457 4.706 2.722-5.24 10.099l-3.627 1.298c-.496-6.927 5.358-10.941 8.867-11.397Zm-3.222 1.038c.582 1.114-.718 4.305-5.744 10.9-14.629 1.177 3.999-14.242 5.744-10.9Zm-51.672.915c1.097-.616 12.915 6.992 14.434 6.284 12.046 9.984-7.191 3.248-11.172-2.344-2.794-2.637-3.628-3.735-3.262-3.94Zm65.348.984c.069 1.003-1.601 3.356-6.308 7.623l-3.927 3.213c-5.576-4.85 10.026-13.848 10.235-10.836Z" id="Shape" fill="#000" fill-rule="evenodd" stroke="none"/></g></g></svg>