<svg xmlns="http://www.w3.org/2000/svg" width="50" height="50"><path style="stroke:none;fill-rule:nonzero;fill:#41cd52;fill-opacity:1" d="M9.434 8c-.528 0-.961.18-1.332.55-1.836 1.825-3.676 3.641-5.524 5.454-.39.383-.578.828-.578 1.363.008 8.04.008 24.016.008 25.516l.07 1.113h1c1.473 0 25.445-.004 37.473.004.543 0 .996-.188 1.394-.578a793.011 793.011 0 0 1 5.473-5.406c.39-.391.582-.844.582-1.399C47.992 26.247 48 9 48 9V8Zm9.66 6c.941.004 1.875.082 2.8.32 1.88.48 3.215 1.582 4 3.34.461 1.035.731 2.121.887 3.235.164 1.195.239 2.402.211 3.605-.035 1.563-.144 3.113-.578 4.625-.305 1.059-.77 2.035-1.543 2.84-.293.308-.633.574-.969.879.778 1.238 1.563 2.492 2.38 3.789-.989.457-1.954.902-2.966 1.367-.851-1.379-1.695-2.746-2.53-4.094-1.665.227-3.282.176-4.876-.242-1.836-.48-3.14-1.57-3.883-3.305-.414-.964-.656-1.964-.808-2.992A20.934 20.934 0 0 1 11 24.051c.02-1.645.117-3.285.59-4.88.172-.581.39-1.155.644-1.706.73-1.582 1.985-2.574 3.657-3.07a9.61 9.61 0 0 1 2.254-.375c.316-.012.632-.02.949-.02ZM31 16h3v4h4v3h-4s-.012 3.11 0 5c.004.531.02 1.348.063 1.875.007.14.046.277.082.418.093.336.316.559.652.629.266.055.539.082.808.078.625-.012 1.415-.11 2.04-.133.058-.004.113.012.218.02.067.785.11 1.879.137 2.695-.285.055-.55.105-.813.152-.933.168-2.039.317-2.984.235a4.827 4.827 0 0 1-1.441-.344 2.366 2.366 0 0 1-1.293-1.297A6.059 6.059 0 0 1 31 30v-7h-2v-3h2Zm-12.004 1.02c-.594 0-1.187.07-1.777.214-1.047.262-1.832.817-2.297 1.703-.113.211-.219.43-.3.653-.415 1.074-.579 2.191-.61 3.32a39.912 39.912 0 0 0 .05 3.133c.055.93.247 1.84.606 2.723.445 1.09 1.293 1.773 2.55 2.054 1.2.27 2.403.266 3.598-.008 1.176-.273 2.012-.902 2.434-1.933.11-.262.207-.531.285-.805.371-1.285.41-2.597.465-4.289-.059-.61-.117-1.594-.242-2.57a6.414 6.414 0 0 0-.738-2.328c-.473-.856-1.23-1.403-2.25-1.653a7.44 7.44 0 0 0-1.774-.214Zm0 0" id="surface70338384"/></svg>