<?xml version="1.0" encoding="utf-8"?>
<svg width="240px" height="215px" viewBox="0 0 240 215" version="1.1" xmlns:xlink="http://www.w3.org/1999/xlink"
    xmlns="http://www.w3.org/2000/svg">
    <defs>
        <path d="M0 0L240 0L240 215L0 215L0 0Z" id="path_1" />
        <clipPath id="mask_1">
            <use xlink:href="#path_1" />
        </clipPath>
    </defs>
    <g id="icons8-flask-(4)">
        <path d="M0 0L240 0L240 215L0 215L0 0Z" id="Background" fill="none" fill-rule="evenodd" stroke="none" />
        <g clip-path="url(#mask_1)">
            <path
                d="M29.8498 0.355959C25.0994 0.754928 20.9522 4.57428 26.8781 10.9692C38.2609 17.3985 15.6521 22.1297 22.2529 26.4311C24.3579 30.9614 22.0844 36.0087 15.9297 36.821C6.91495 37.5989 7.76937 49.9092 16.5553 43.4571C26.3594 40.3454 18.25 44.6874 13.6283 45.5797C3.25218 48.5999 -3.81828 58.965 2.2106 68.4374C7.97636 81.479 9.51272 96.0267 13.9858 109.595C21.3874 130.461 32.2018 150.316 46.2501 167.465C52.9197 177.189 62.6703 184.098 71.8337 191.306C80.8485 197.151 90.8871 203 101.149 205.985C119.373 212.655 138.93 213.279 158.081 214.789C169.749 214.766 181.461 213.943 192.982 211.884C203.346 213.005 210.805 204.144 220.174 208.823C225.848 203.79 234.117 205.982 239.792 202.321C243.99 188.044 225.373 199.491 219.481 192.512C213.075 200.04 207.698 191.686 199.93 194.032C186.706 194.695 200.933 188.107 200.601 182.055C193.588 176.679 185.669 189.438 181.184 192.87C170.11 190.868 159.145 187.72 148.987 182.927C137.409 176.898 126.046 169.725 117.661 159.555C108.886 149.168 99.187 138.664 95.1829 125.325C86.7174 103.303 87.2681 79.4587 85.1059 56.327C85.9067 40.6657 102.445 58.0126 109.595 52.3499C107.147 44.2275 94.1006 41.6563 86.8934 38.4074C79.9379 37.9269 77.4032 31.6937 70.0015 31.1903C70.3562 22.4959 56.4015 27.28 51.3222 21.091C56.3214 8.18664 34.7595 21.3973 36.4412 10.2319C39.9533 2.97321 34.6003 -0.0430099 29.8498 0.355959L29.8498 0.355959ZM31.064 1.49738C32.5516 1.10052 34.2626 1.41972 35.987 2.88414C44.1675 14.6641 20.9406 1.53317 29.0005 12.7806C24.0989 10.3237 26.6011 2.68799 31.064 1.49738L31.064 1.49738ZM48.2546 18.1939C51.7776 20.13 52.9939 25.5813 43.3182 28.924L39.429 28.4069C38.9184 17.8495 44.7315 16.2579 48.2546 18.1939L48.2546 18.1939ZM41.6415 23.7039C44.911 25.385 51.6137 26.1634 52.7115 30.3804C46.0175 26.2895 54.0434 35.3096 48.4233 35.1415C45.3926 35.1836 39.7801 27.5425 41.6415 23.7039L41.6415 23.7039ZM40.015 29.0094C47.2794 46.5965 35.9668 28.9997 31.368 40.0326C24.1264 42.363 39.3057 27.0432 40.015 29.0094L40.015 29.0094ZM59.2105 32.2023C60.1375 32.4772 60.1373 33.4186 58.6072 35.3933C64.2356 42.6164 59.87 40.1799 56.0376 35.0574C59.401 37.5511 56.8068 48.3189 51.6359 40.9116C47.9751 33.5902 45.6574 38.5388 49.5356 43.5507C45.7261 35.8486 34.6985 39.139 26.6333 42.0872C21.4281 41.473 40.1596 37.3117 42.1845 36.329C45.3162 36.3935 56.4295 31.3777 59.2105 32.2023L59.2105 32.2023ZM81.7778 39.7915C84.0785 39.7618 86.3475 39.8485 88.5926 40.0372C92.1962 44.2357 85.8647 51.3434 79.2753 51.8124C71.2673 54.8097 63.1163 55.5431 55.6803 56.5269C46.1393 55.3257 39.2882 63.9084 29.404 64.9952C32.0352 60.1218 27.2424 63.3139 22.2317 63.0736C24.7828 72.9121 4.57975 60.4591 16.5117 58.091C7.56559 54.9107 7.44047 64.3111 8.37855 69.6651L7.77527 69.6651C-0.415774 59.1174 8.69422 54.8158 19.0589 53.4658C17.0912 58.3278 21.889 59.8914 26.4993 60.7722C33.9697 58.713 21.5853 57.3883 27.2367 55.4321C30.3369 54.8601 17.3529 52.3269 28.1751 50.874C39.2719 49.0092 49.2555 44.649 60.2607 42.361C67.7082 40.8852 74.8757 39.8805 81.7778 39.7915L81.7778 39.7915ZM85.2403 42.4164C82.95 41.5796 77.6244 43.2626 74.896 51.6858C76.8754 56.9975 77.8572 50.1325 77.456 48.3095C86.8047 46.6281 87.5307 43.2532 85.2403 42.4164L85.2403 42.4164ZM56.2392 46.4612C53.0374 45.8949 47.792 48.5586 45.9387 57.1134C48.2954 61.2479 50.8867 45.6729 54.2729 55.4812C60.5935 50.863 59.441 47.0274 56.2392 46.4612L56.2392 46.4612ZM102.444 47.0225C105.683 46.3945 115.715 50.8419 112.168 58.3002C109.737 59.1251 110.152 54.7725 108.369 54.0577C101.022 49.6136 100.5 47.3993 102.444 47.0225L102.444 47.0225ZM41.8556 51.2761C39.9787 51.2726 38.4767 52.7487 38.2971 56.759L41.9057 62.503C56.3208 64.5415 47.4862 51.2866 41.8556 51.2761L41.8556 51.2761ZM37.7753 54.2567C35.9707 53.8856 34.2985 55.2929 33.3813 60.0618C35.0773 59.4771 37.771 60.854 39.3977 62.5837C49.6513 72.4504 43.1893 55.3702 37.7753 54.2567L37.7753 54.2567ZM79.8774 55.3215C85.8265 54.1572 84.0907 69.5566 82.1788 74.2914C85.7824 71.8318 85.0885 85.7219 83.9216 90.8928C85.8893 88.2502 86.6991 95.1688 84.5026 100.054C84.6856 99.2529 89.2627 98.5551 85.8879 104.344C83.3139 98.6695 82.1958 115.886 83.8546 108.165C88.3963 100.866 87.2072 107.776 88.5915 111.002C89.4838 117.695 92.4693 123.867 93.3731 129.793C97.5715 134.026 91.585 131.156 91.6079 136.876C92.9693 135.217 98.5241 139.206 98.4898 145.143C98.9474 135.728 99.4883 142.941 104.076 145.389C107.908 151.567 110.779 157.347 116.499 162.437C120.96 167.597 116.219 163.972 118.152 167.13C122.888 175.527 133.861 180.395 143.356 182.592C147.52 188.014 153.771 193.408 162.236 190.948C155.075 195.364 182.406 196.565 173.163 199.059C168.358 201.667 163.799 197.378 159.108 197.607C152.588 195.364 142.28 188.493 135.29 193.16C125.623 199.212 140.244 186.412 132.408 192.132C124.468 201.662 127.014 186.203 119.269 190.836C118.823 189.361 112.385 188.954 117.259 186.345C112.888 186.071 115.613 185.79 117.191 182.301C115.315 181.912 104.887 182.281 100.791 178.86C95.9635 172.58 101.634 175.13 106.668 176.045C98.5909 177.463 109.446 182.104 114.845 179.53C112.42 178.501 109.644 173.259 103.227 168.671C94.2577 163.272 86.8767 160.695 77.576 156.382C67.5088 150.411 79.8292 154.264 83.3184 157.41C93.3627 161.837 89.4095 151.196 83.5865 148.428C77.203 148.691 75.562 141.358 70.4484 141.77C78.525 143.062 84.1324 139.681 75.1405 131.558C66.5949 121.583 78.7093 139.085 73.7329 136.832C71.4678 133.846 73.165 129.55 65.9349 128.006C65.8548 130.763 64.9441 135.035 63.3654 129.235C61.352 129.578 59.047 131.788 57.3996 125.816C58.9555 119.032 50.6818 117.483 49.4006 113.147C56.5506 117.712 59.7863 114.113 54.7184 109.125C51.2292 103.028 50.7421 107.81 48.7973 108.656C41.7845 115.818 48.1552 96.3021 45.0435 101.931C41.909 101.839 43.7127 105.38 43.7699 109.773C33.5197 107.234 46.2588 115.167 49.2218 119.537C44.5428 114.641 45.3363 123.208 41.4238 119.135C40.0968 115.532 39.9118 109.842 33.4024 108.835C40.8041 106.272 29 101.066 29.9838 100.791C34.2166 96.9358 34.7575 91.6371 39.8598 99.9197C33.3962 99.3934 39.6773 110.589 41.2674 107.248C41.0157 101.517 43.9095 95.5017 34.1398 92.859C31.2683 96.7258 26.3189 85.2838 32.0618 87.6976C31.3068 80.1015 40.9691 84.5797 40.3513 81.285C45.3392 79.0999 34.3132 72.045 40.262 69.2193C44.8151 71.9878 56.6249 64.863 48.6856 63.8792C53.6505 63.8334 57.6331 66.0081 58.1593 60.9745C62.1747 61.8439 73.037 65.3028 63.1643 59.8573C66.3217 58.29 72.9948 56.9652 76.8387 56.9079C78.0241 55.9856 79.0276 55.4879 79.8774 55.3215L79.8774 55.3215ZM81.8999 64.7735C78.9511 65.2046 74.3405 73.1999 77.5196 76.0571C84.5169 81.7428 91.5184 62.0828 85.7546 68.6836C82.6597 77.092 79.4957 73.5784 83.9587 67.3207C83.6896 65.3101 82.8829 64.6298 81.8999 64.7735L81.8999 64.7735ZM29.1849 72.2221C29.9181 72.163 31.2056 72.2684 33.1897 72.6357C43.4272 72.0004 40.1402 82.83 34.3133 83.5447C34.1806 84.233 28.9756 81.3042 31.1441 78.7365C45.1875 81.9329 24.0525 72.6357 29.1849 72.2221L29.1849 72.2221ZM49.2257 75.1291C50.2463 76.8369 51.9772 80.0508 50.6723 81.4789C54.111 84.0193 65.8586 88.54 56.4241 82.3273C62.4375 81.4323 55.6298 80.0121 52.05 77.8798C47.897 73.2269 48.2051 73.4213 49.2257 75.1291L49.2257 75.1291ZM26.6516 75.1952C31.6033 74.9278 36.6861 78.4572 27.0815 86.6211C16.8795 79.5268 21.7 75.4626 26.6516 75.1952L26.6516 75.1952ZM75.5341 80.6589C73.8216 79.7624 72.9243 80.5566 74.8724 84.9215C94.8198 101.384 80.6719 83.348 75.5341 80.6589L75.5341 80.6589ZM46.8325 83.5358C48.0163 87.8838 51.2206 85.9591 52.7132 90.1764C66.1979 104.365 51.5033 80.9858 46.8325 83.5358L46.8325 83.5358ZM44.9803 84.3601C44.3474 84.5828 44.4611 85.8844 45.8674 88.8879C46.7512 91.9851 48.8825 92.2482 50.6623 92.9703C64.4657 102.82 47.7228 83.3953 44.9803 84.3601L44.9803 84.3601ZM25.5083 85.7052C30.1302 87.1708 35.689 92.0134 29.5761 96.6926L27.0932 94.8442C17.2071 86.0905 20.8865 84.2397 25.5083 85.7052L25.5083 85.7052ZM41.0931 86.9161C40.2516 86.9783 40.9734 88.7674 44.8809 93.6918L47.4169 97.3753C60.2364 102.352 43.6177 86.7295 41.0931 86.9161L41.0931 86.9161ZM40.6125 89.3052C39.9854 89.286 45.6208 95.17 43.0158 95.0673C33.9975 88.6347 37.6792 93.1842 42.7724 98.1266C48.3018 106.141 52.8704 93.3527 43.8676 91.7408C41.7259 89.9843 40.8216 89.3116 40.6125 89.3052L40.6125 89.3052ZM68.9021 95.8203C67.445 96.7324 67.1913 99.814 70.0622 106.52C89.2176 109.836 73.2733 93.084 68.9021 95.8203L68.9021 95.8203ZM75.0147 96.12C72.2486 96.1286 70.1714 106.245 77.007 108.364C79.8232 112.54 82.8301 110.821 83.8502 106.085C77.2419 106.154 86.5701 98.6661 77.7 100.142C76.9238 97.2275 75.9367 96.1171 75.0147 96.12L75.0147 96.12ZM92.8986 96.4565C90.471 95.3988 84.6308 97.7114 82.5151 105.449L82.5151 107.655C94.2327 101.932 95.3262 97.5143 92.8986 96.4565L92.8986 96.4565ZM16.9406 96.6791C18.8012 96.4614 29.4065 106.898 27.9763 109.773C21.4784 108.674 21.7933 103.734 18.7798 101.126C16.6904 98.011 16.3204 96.7517 16.9406 96.6791L16.9406 96.6791ZM54.4597 97.1925C53.5772 99.5148 56.3331 107.13 58.0014 109.727C62.2567 115.916 60.3476 106.343 65.0139 112.52C62.4511 107.098 66.219 110.05 65.675 107.739C64.4903 105.405 53.0151 93.0527 58.2375 102.376C62.9643 113.496 55.2697 100.979 54.4597 97.1925L54.4597 97.1925ZM14.6783 99.0048C15.8872 99.7841 19.1274 105.056 19.728 107.987C24.8188 114.119 22.8107 117.497 28.0845 125.013C21.3006 120.734 20.019 110.521 15.7061 103.92C13.9429 99.6862 13.9529 98.5373 14.6783 99.0048L14.6783 99.0048ZM52.1254 118.219C54.8543 119.076 53.205 128.001 57.3091 129.212C66.4726 141.167 50.9621 129.563 45.7797 128.408C46.4433 128.374 41.1794 126.912 43.456 126.397C41.7972 124.692 38.0847 118.502 46.5618 122.643C53.2999 126.018 53.8653 123.741 50.6507 118.376C51.2484 118.122 51.7355 118.097 52.1254 118.219L52.1254 118.219ZM21.2017 119.963C21.4286 118.822 26.0947 126.328 26.9441 129.459C29.5066 137.616 37.5272 142.315 38.3394 147.714C47.2283 152.839 42.6666 161.199 50.1369 163.556C53.4545 161.874 53.7811 173.623 60.8396 171.175C56.9156 173.017 62.4916 175.195 64.4592 178.616C68.9094 178.009 78.6629 188.419 68.9503 184.827C64.8548 183.958 62.0581 179.697 59.1638 176.918C50.5723 171.461 44.9966 162.331 40.2833 153.591C34.2087 144.404 26.8962 135.219 22.7435 124.477C21.5251 121.688 21.1261 120.344 21.2017 119.963L21.2017 119.963ZM90.6188 126.9C88.2943 127.353 88.1728 129.999 94.9768 135.786L98.9908 138.269C104.532 131.425 94.4928 126.147 90.6188 126.9L90.6188 126.9ZM58.5609 137.367C61.0892 137.918 64.893 139.276 66.4259 139.579C66.8492 141.398 57.7601 141.116 65.7109 144.673C61.0777 144.548 59.6796 144.199 66.2919 148.248C63.695 150.331 71.5275 151.985 68.8391 155.108C76.8127 161.331 67.3996 156.687 63.9905 154.147C61.977 152.751 53.7717 149.978 55.053 148.159C64.7312 153.238 57.5103 147.936 53.2431 144.562C61.0452 146.472 46.9913 138.783 54.4273 140.808C56.6353 141.346 51.084 136.252 58.3598 139.959C54.7791 137.065 56.0327 136.816 58.5609 137.367L58.5609 137.367ZM107.6 156.884C105.298 156.363 107.576 162.076 112.707 165.519C123.643 173.87 115.324 160.778 111.521 159.795C109.672 157.928 108.367 157.057 107.6 156.884L107.6 156.884ZM65.3095 162.415C67.9465 162.466 72.2576 164.593 74.9174 167.131C86.5862 171.776 72.4349 177.372 67.7674 170.967L65.8011 170.208C61.7227 164.417 62.6726 162.364 65.3095 162.415L65.3095 162.415ZM79.2508 163.662C80.2213 163.239 84.6321 166.945 86.5125 170.509C92.1067 172.051 92.1315 177.272 85.9539 174.024C84.8557 172.645 83.085 172.722 82.513 169.824C79.3298 165.67 78.6685 163.916 79.2508 163.662L79.2508 163.662ZM86.6913 163.736C88.4559 163.64 91.3454 165.25 92.2549 169.55C104.507 175.871 91.4797 178.621 87.8532 168.258C84.2896 165.63 84.9267 163.833 86.6913 163.736L86.6913 163.736ZM86.8342 170.695C89.2998 169.413 105.401 185.042 93.8217 181.549L90.4527 179.007C86.7101 173.487 86.0123 171.122 86.8342 170.695L86.8342 170.695ZM132.694 173.272C134.734 174.511 136.806 177.74 138.241 184.087C121.248 183.617 126.577 169.555 132.694 173.272L132.694 173.272ZM87.0187 176.084C90.773 176.826 105.216 192.953 92.4254 185.566L90.4563 183.997L88.2202 181.882C85.6869 177.281 85.7673 175.837 87.0187 176.084L87.0187 176.084ZM107.645 190.43C109.881 187.093 128.244 202.706 112.634 201.313C107.938 194.606 106.899 191.542 107.645 190.43L107.645 190.43ZM82.1786 191.395C82.8654 191.549 83.9538 191.884 85.5525 192.468C95.7913 198.794 107.595 202.14 118.532 207.013C128.141 208.272 138.274 210.815 147.735 208.779C155.629 212.725 163.816 207.757 171.732 211.326C154.241 214.735 136.245 211.003 118.822 208.578C107.84 207.193 98.0318 202.635 88.0103 198.299C86.5574 197.613 85.183 196.754 83.7874 195.953C76.9005 192.132 77.7538 191.352 84.4577 195.104C86.8257 196.992 103.626 203.869 95.6295 199.327C92.6065 198.576 77.3713 190.321 82.1786 191.395L82.1786 191.395ZM149.413 194.555C150.614 195.437 150.655 198.317 150.611 201.956C142.546 212.14 147.355 197.793 142.358 203.326C137.747 207.536 138.841 200.819 141.331 199.215C145.846 194.794 148.212 193.673 149.413 194.555L149.413 194.555ZM189.721 196.614C194.418 197.895 199.792 201.328 202.904 201.563C201.016 214.124 189.349 202.582 184.224 205.876L182.012 205.451L180.649 204.745C181.01 196.202 185.023 195.334 189.721 196.614L189.721 196.614ZM230.118 197.561C242.267 197.486 230.919 209.149 225.336 208.999C218.999 199.238 228.207 199.513 230.118 197.561L230.118 197.561ZM163.373 199.182C166.881 198.725 168.079 201.904 158.133 209.281L154.506 210.579C154.01 203.652 159.864 199.638 163.373 199.182L163.373 199.182ZM160.151 200.22C160.733 201.334 159.433 204.525 154.407 211.12C139.778 212.297 158.406 196.878 160.151 200.22L160.151 200.22ZM108.479 201.135C109.576 200.519 121.394 208.127 122.913 207.419C134.959 217.403 115.722 210.667 111.741 205.075C108.947 202.438 108.113 201.34 108.479 201.135L108.479 201.135ZM173.827 202.119C173.896 203.122 172.226 205.475 167.519 209.742L163.592 212.955C158.016 208.105 173.618 199.107 173.827 202.119L173.827 202.119Z"
                id="Shape" fill="#000000" fill-rule="evenodd" stroke="none" />
        </g>
    </g>
</svg>
